<?xml version="1.0" encoding="UTF-8"?>
<svg xmlns="http://www.w3.org/2000/svg" viewBox="0 0 24 24" width="24" height="24">
  <path fill="#4285F4" d="M12,2C6.48,2,2,6.48,2,12s4.48,10,10,10s10-4.48,10-10S17.52,2,12,2z"/>
  <path fill="#34A853" d="M12,2c-1.82,0-3.53,0.5-5,1.35C7.55,5.5,9.61,7,12,7s4.45-1.5,5-3.65C15.53,2.5,13.82,2,12,2z"/>
  <path fill="#34A853" d="M4.11,9C3.42,10.26,3,11.58,3,13c0,4.42,3.58,8,8,8c0.71,0,1.4-0.09,2.05-0.27 c-0.81-1.23-1.28-2.68-1.28-4.23c0-3.04,1.79-5.67,4.37-6.88C15.38,8.7,14.25,8,12.99,7.72C10.61,7.21,8,8,6.5,10 C5.81,10.88,5.14,11.5,4.11,9z"/>
  <ellipse cx="17" cy="16.5" rx="4" ry="3.5" fill="#FBBC04" opacity="0.8"/>
  <path fill="#FFFFFF" d="M12,4v16" stroke="#FFFFFF" stroke-width="0.5" opacity="0.5"/>
  <path fill="#FFFFFF" d="M4,12h16" stroke="#FFFFFF" stroke-width="0.5" opacity="0.5"/>
</svg>
